<?xml version="1.0" encoding="UTF-8"?>
<svg width="512px" height="382px" viewBox="0 0 512 382" version="1.1" xmlns="http://www.w3.org/2000/svg" xmlns:xlink="http://www.w3.org/1999/xlink">
    <title>Artboard</title>
    <defs>
        <rect id="path-1" x="242" y="149" width="194" height="97" rx="19"></rect>
        <filter x="-18.8%" y="-24.2%" width="137.6%" height="175.3%" filterUnits="objectBoundingBox" id="filter-2">
            <feOffset dx="0" dy="13" in="SourceAlpha" result="shadowOffsetOuter1"></feOffset>
            <feGaussianBlur stdDeviation="10" in="shadowOffsetOuter1" result="shadowBlurOuter1"></feGaussianBlur>
            <feColorMatrix values="0 0 0 0 0.730808424   0 0 0 0 0.730808424   0 0 0 0 0.730808424  0 0 0 0.5 0" type="matrix" in="shadowBlurOuter1"></feColorMatrix>
        </filter>
    </defs>
    <g id="Artboard" stroke="none" stroke-width="1" fill="none" fill-rule="evenodd">
        <rect id="Rectangle" fill="#FFFFFF" x="1" y="8" width="511" height="367" rx="25"></rect>
        <g id="iPad-Pro-11&quot;" transform="translate(-1.000000, 5.000000)" fill="#E7E3E3">
            <path d="M62.7075416,0 C63.0001027,0 63.2400027,0.239932254 63.2400027,0.535594493 L63.2400027,1.36626459 L67.3300066,1.36626459 L67.3300066,0.535594493 C67.3300066,0.239932254 67.5699067,0 67.8624678,0 L87.118838,0 C87.4172503,0 87.6571504,0.239932254 87.6571504,0.535594493 L87.6571504,1.36626459 L487.775384,1.36626459 C501.69544,1.36685122 513,12.6999838 513,26.6594652 L513,346.706799 C513,360.666457 501.69544,372 487.775384,372 L27.0267924,372 C13.1067363,372 1.80217624,360.666515 1.80217624,346.706799 L1.80217624,53.1622998 L0.672890481,53.1622998 C0.304263522,53.1622998 0,52.8619445 0,52.4923667 L0,28.1518555 C0,27.7822777 0.304263522,27.4819224 0.672890481,27.4819224 L1.80217624,27.4819224 L1.80217624,26.6594652 C1.80217624,12.6999838 13.1067363,1.36685122 27.0267924,1.36626459 L42.9187102,1.36626459 L42.9187102,0.535594493 C42.9187102,0.239932254 43.1586103,0 43.4511714,0 L62.7075416,0 Z M485.879588,3.56613244 L28.9225882,3.56613244 C15.1663663,3.56613244 3.99638433,14.765513 3.99638433,28.5589777 L3.99638433,344.80717 C3.99638433,358.601162 15.1663663,369.800132 28.9225882,369.800132 L485.879588,369.800132 C499.63581,369.800132 510.805792,358.601162 510.805792,344.80717 L510.805792,28.5589777 C510.805792,14.765513 499.63581,3.56613244 485.879588,3.56613244 Z M11.4215845,184.158271 C12.6269361,184.158271 13.6099414,185.142052 13.6099414,186.354619 C13.6099414,187.566599 12.6269361,188.550967 11.4215845,188.550967 C10.2103816,188.550967 9.22737642,187.566599 9.22737642,186.354619 C9.22737642,185.142052 10.2103816,184.158271 11.4215845,184.158271 Z M11.4215845,175.84981 C12.0242603,175.84981 12.5157629,176.341994 12.5157629,176.947984 C12.5157629,177.553974 12.0242603,178.046158 11.4215845,178.046158 C10.8130575,178.046158 10.3215549,177.553974 10.3215549,176.947984 C10.3215549,176.341994 10.8130575,175.84981 11.4215845,175.84981 Z" id="Hardware"></path>
            <path d="M494,29.3667926 C494,24.1970876 489.813776,20 484.649791,20 L27.356064,20 C22.1920787,20 18,24.1970876 18,29.3667926 L18,343.633559 C18,348.80303 22.1920787,353 27.356064,353 L484.649791,353 C489.813776,353 494,348.80303 494,343.633559 L494,29.3667926 Z" id="REPLACE-SCREEN"></path>
        </g>
        <g id="Rectangle">
            <use fill="black" fill-opacity="1" filter="url(#filter-2)" xlink:href="#path-1"></use>
            <use fill="#C1FFFF" fill-rule="evenodd" xlink:href="#path-1"></use>
        </g>
        <rect id="Rectangle" fill="#D8D8D8" x="76" y="161" width="157" height="73" rx="19"></rect>
        <circle id="Oval" stroke="#AFDEFB" stroke-width="8" fill="#2D4BFF" cx="361" cy="246" r="26"></circle>
    </g>
</svg>